<svg width="252" height="45" viewBox="0 0 252 45" fill="none" xmlns="http://www.w3.org/2000/svg">
<mask id="path-1-outside-1_1_847" maskUnits="userSpaceOnUse" x="-0.660568" y="-0.0625" width="252" height="45" fill="black">
<rect fill="white" x="-0.660568" y="-0.0625" width="252" height="45"/>
<path d="M42.5582 35.8125H18.6207L14.5894 43.9375H1.65193L24.1207 1H37.0582L59.5269 43.9375H46.5894L42.5582 35.8125ZM22.7769 27.4375H38.4644L30.6519 11.625L22.7769 27.4375ZM90.0582 26.4062V43.9375H78.4957V26.4062L57.6832 1H70.6832L84.3082 18.2812L97.8707 1H110.871L90.0582 26.4062ZM159.433 43.9375L130.464 14.4375V43.9375H118.871V1H131.464L160.464 30.625V1H171.996V43.9375H159.433ZM213.839 21.9062L234.214 43.9375H220.308L206.871 29.4688L193.496 43.9375H179.621L199.964 21.9062L180.621 1H194.527L206.871 14.4375L219.277 1H233.183L213.839 21.9062ZM238.277 43.9375V32.6875H250.121V43.9375H238.277Z"/>
</mask>
<path d="M42.5582 35.8125H18.6207L14.5894 43.9375H1.65193L24.1207 1H37.0582L59.5269 43.9375H46.5894L42.5582 35.8125ZM22.7769 27.4375H38.4644L30.6519 11.625L22.7769 27.4375ZM90.0582 26.4062V43.9375H78.4957V26.4062L57.6832 1H70.6832L84.3082 18.2812L97.8707 1H110.871L90.0582 26.4062ZM159.433 43.9375L130.464 14.4375V43.9375H118.871V1H131.464L160.464 30.625V1H171.996V43.9375H159.433ZM213.839 21.9062L234.214 43.9375H220.308L206.871 29.4688L193.496 43.9375H179.621L199.964 21.9062L180.621 1H194.527L206.871 14.4375L219.277 1H233.183L213.839 21.9062ZM238.277 43.9375V32.6875H250.121V43.9375H238.277Z" fill="#FF5500"/>
<path d="M42.5582 35.8125L43.454 35.368L43.1783 34.8125H42.5582V35.8125ZM18.6207 35.8125V34.8125H18.0005L17.7249 35.368L18.6207 35.8125ZM14.5894 43.9375V44.9375H15.2096L15.4852 44.382L14.5894 43.9375ZM1.65193 43.9375L0.765911 43.4739L3.57628e-07 44.9375H1.65193V43.9375ZM24.1207 1V0H23.5153L23.2347 0.536354L24.1207 1ZM37.0582 1L37.9442 0.536354L37.6635 0H37.0582V1ZM59.5269 43.9375V44.9375H61.1789L60.413 43.4739L59.5269 43.9375ZM46.5894 43.9375L45.6936 44.382L45.9693 44.9375H46.5894V43.9375ZM22.7769 27.4375L21.8818 26.9917L21.1618 28.4375H22.7769V27.4375ZM38.4644 27.4375V28.4375H40.0739L39.361 26.9945L38.4644 27.4375ZM30.6519 11.625L31.5485 11.182L30.6555 9.37466L29.7568 11.1792L30.6519 11.625ZM42.5582 35.8125V34.8125H18.6207V35.8125V36.8125H42.5582V35.8125ZM18.6207 35.8125L17.7249 35.368L13.6936 43.493L14.5894 43.9375L15.4852 44.382L19.5165 36.257L18.6207 35.8125ZM14.5894 43.9375V42.9375H1.65193V43.9375V44.9375H14.5894V43.9375ZM1.65193 43.9375L2.53795 44.4011L25.0067 1.46365L24.1207 1L23.2347 0.536354L0.765911 43.4739L1.65193 43.9375ZM24.1207 1V2H37.0582V1V0H24.1207V1ZM37.0582 1L36.1722 1.46365L58.6409 44.4011L59.5269 43.9375L60.413 43.4739L37.9442 0.536354L37.0582 1ZM59.5269 43.9375V42.9375H46.5894V43.9375V44.9375H59.5269V43.9375ZM46.5894 43.9375L47.4852 43.493L43.454 35.368L42.5582 35.8125L41.6624 36.257L45.6936 44.382L46.5894 43.9375ZM22.7769 27.4375V28.4375H38.4644V27.4375V26.4375H22.7769V27.4375ZM38.4644 27.4375L39.361 26.9945L31.5485 11.182L30.6519 11.625L29.7554 12.068L37.5679 27.8805L38.4644 27.4375ZM30.6519 11.625L29.7568 11.1792L21.8818 26.9917L22.7769 27.4375L23.6721 27.8833L31.5471 12.0708L30.6519 11.625ZM90.0582 26.4062L89.2846 25.7725L89.0582 26.0489V26.4062H90.0582ZM90.0582 43.9375V44.9375H91.0582V43.9375H90.0582ZM78.4957 43.9375H77.4957V44.9375H78.4957V43.9375ZM78.4957 26.4062H79.4957V26.0489L79.2693 25.7725L78.4957 26.4062ZM57.6832 1V0H55.5713L56.9096 1.63371L57.6832 1ZM70.6832 1L71.4685 0.380863L71.1682 0H70.6832V1ZM84.3082 18.2812L83.5229 18.9004L84.31 19.8987L85.0948 18.8986L84.3082 18.2812ZM97.8707 1V0H97.3843L97.084 0.382618L97.8707 1ZM110.871 1L111.644 1.63371L112.983 0H110.871V1ZM90.0582 26.4062H89.0582V43.9375H90.0582H91.0582V26.4062H90.0582ZM90.0582 43.9375V42.9375H78.4957V43.9375V44.9375H90.0582V43.9375ZM78.4957 43.9375H79.4957V26.4062H78.4957H77.4957V43.9375H78.4957ZM78.4957 26.4062L79.2693 25.7725L58.4568 0.366295L57.6832 1L56.9096 1.63371L77.7221 27.04L78.4957 26.4062ZM57.6832 1V2H70.6832V1V0H57.6832V1ZM70.6832 1L69.8979 1.61914L83.5229 18.9004L84.3082 18.2812L85.0935 17.6621L71.4685 0.380863L70.6832 1ZM84.3082 18.2812L85.0948 18.8986L98.6573 1.61738L97.8707 1L97.084 0.382618L83.5215 17.6639L84.3082 18.2812ZM97.8707 1V2H110.871V1V0H97.8707V1ZM110.871 1L110.097 0.366295L89.2846 25.7725L90.0582 26.4062L90.8318 27.04L111.644 1.63371L110.871 1ZM159.433 43.9375L158.72 44.6382L159.014 44.9375H159.433V43.9375ZM130.464 14.4375L131.178 13.7368L129.464 11.9919V14.4375H130.464ZM130.464 43.9375V44.9375H131.464V43.9375H130.464ZM118.871 43.9375H117.871V44.9375H118.871V43.9375ZM118.871 1V0H117.871V1H118.871ZM131.464 1L132.179 0.300472L131.885 0H131.464V1ZM160.464 30.625L159.75 31.3245L161.464 33.0761V30.625H160.464ZM160.464 1V0H159.464V1H160.464ZM171.996 1H172.996V0H171.996V1ZM171.996 43.9375V44.9375H172.996V43.9375H171.996ZM159.433 43.9375L160.147 43.2368L131.178 13.7368L130.464 14.4375L129.751 15.1382L158.72 44.6382L159.433 43.9375ZM130.464 14.4375H129.464V43.9375H130.464H131.464V14.4375H130.464ZM130.464 43.9375V42.9375H118.871V43.9375V44.9375H130.464V43.9375ZM118.871 43.9375H119.871V1H118.871H117.871V43.9375H118.871ZM118.871 1V2H131.464V1V0H118.871V1ZM131.464 1L130.75 1.69953L159.75 31.3245L160.464 30.625L161.179 29.9255L132.179 0.300472L131.464 1ZM160.464 30.625H161.464V1H160.464H159.464V30.625H160.464ZM160.464 1V2H171.996V1V0H160.464V1ZM171.996 1H170.996V43.9375H171.996H172.996V1H171.996ZM171.996 43.9375V42.9375H159.433V43.9375V44.9375H171.996V43.9375ZM213.839 21.9062L213.105 21.2271L212.477 21.9061L213.105 22.5852L213.839 21.9062ZM234.214 43.9375V44.9375H236.501L234.949 43.2585L234.214 43.9375ZM220.308 43.9375L219.575 44.618L219.872 44.9375H220.308V43.9375ZM206.871 29.4688L207.603 28.7882L206.869 27.9974L206.136 28.7899L206.871 29.4688ZM193.496 43.9375V44.9375H193.933L194.23 44.6163L193.496 43.9375ZM179.621 43.9375L178.886 43.2591L177.336 44.9375H179.621V43.9375ZM199.964 21.9062L200.699 22.5847L201.326 21.9056L200.698 21.2271L199.964 21.9062ZM180.621 1V0H178.333L179.887 1.67915L180.621 1ZM194.527 1L195.263 0.323502L194.966 0H194.527V1ZM206.871 14.4375L206.134 15.114L206.869 15.9137L207.605 15.1159L206.871 14.4375ZM219.277 1V0H218.839L218.542 0.321648L219.277 1ZM233.183 1L233.917 1.67915L235.471 0H233.183V1ZM213.839 21.9062L213.105 22.5852L233.48 44.6165L234.214 43.9375L234.949 43.2585L214.574 21.2273L213.839 21.9062ZM234.214 43.9375V42.9375H220.308V43.9375V44.9375H234.214V43.9375ZM220.308 43.9375L221.041 43.257L207.603 28.7882L206.871 29.4688L206.138 30.1493L219.575 44.618L220.308 43.9375ZM206.871 29.4688L206.136 28.7899L192.761 43.2587L193.496 43.9375L194.23 44.6163L207.605 30.1476L206.871 29.4688ZM193.496 43.9375V42.9375H179.621V43.9375V44.9375H193.496V43.9375ZM179.621 43.9375L180.355 44.6159L200.699 22.5847L199.964 21.9062L199.23 21.2278L178.886 43.2591L179.621 43.9375ZM199.964 21.9062L200.698 21.2271L181.355 0.320854L180.621 1L179.887 1.67915L199.23 22.5854L199.964 21.9062ZM180.621 1V2H194.527V1V0H180.621V1ZM194.527 1L193.79 1.6765L206.134 15.114L206.871 14.4375L207.607 13.761L195.263 0.323502L194.527 1ZM206.871 14.4375L207.605 15.1159L220.012 1.67835L219.277 1L218.542 0.321648L206.136 13.7591L206.871 14.4375ZM219.277 1V2H233.183V1V0H219.277V1ZM233.183 1L232.449 0.320854L213.105 21.2271L213.839 21.9062L214.573 22.5854L233.917 1.67915L233.183 1ZM238.277 43.9375H237.277V44.9375H238.277V43.9375ZM238.277 32.6875V31.6875H237.277V32.6875H238.277ZM250.121 32.6875H251.121V31.6875H250.121V32.6875ZM250.121 43.9375V44.9375H251.121V43.9375H250.121ZM238.277 43.9375H239.277V32.6875H238.277H237.277V43.9375H238.277ZM238.277 32.6875V33.6875H250.121V32.6875V31.6875H238.277V32.6875ZM250.121 32.6875H249.121V43.9375H250.121H251.121V32.6875H250.121ZM250.121 43.9375V42.9375H238.277V43.9375V44.9375H250.121V43.9375Z" fill="black" mask="url(#path-1-outside-1_1_847)"/>
</svg>
